<svg width="30" height="30" viewBox="0 0 30 30" fill="none" xmlns="http://www.w3.org/2000/svg">
<path d="M15 26.2188L13.7188 25.0625C11.5104 23.0417 9.6875 21.2969 8.25 19.8281C6.8125 18.3594 5.66667 17.0469 4.8125 15.8906C3.95833 14.7344 3.35937 13.6875 3.01562 12.75C2.67187 11.8125 2.5 10.8646 2.5 9.90625C2.5 8.03125 3.13021 6.46354 4.39062 5.20312C5.65104 3.94271 7.20833 3.3125 9.0625 3.3125C10.25 3.3125 11.349 3.59375 12.3594 4.15625C13.3698 4.71875 14.25 5.53125 15 6.59375C15.875 5.46875 16.8021 4.64062 17.7812 4.10937C18.7604 3.57812 19.8125 3.3125 20.9375 3.3125C22.7917 3.3125 24.349 3.94271 25.6094 5.20312C26.8698 6.46354 27.5 8.03125 27.5 9.90625C27.5 10.8646 27.3281 11.8125 26.9844 12.75C26.6406 13.6875 26.0417 14.7344 25.1875 15.8906C24.3333 17.0469 23.1875 18.3594 21.75 19.8281C20.3125 21.2969 18.4896 23.0417 16.2812 25.0625L15 26.2188ZM15 23.75C17.1042 21.8125 18.8385 20.151 20.2031 18.7656C21.5677 17.3802 22.651 16.1667 23.4531 15.125C24.2552 14.0833 24.8177 13.1562 25.1406 12.3438C25.4635 11.5312 25.625 10.7188 25.625 9.90625C25.625 8.53125 25.1875 7.40104 24.3125 6.51562C23.4375 5.63021 22.3125 5.1875 20.9375 5.1875C19.875 5.1875 18.8854 5.51562 17.9688 6.17188C17.0521 6.82812 16.3125 7.75 15.75 8.9375H14.2188C13.6771 7.77083 12.9479 6.85417 12.0312 6.1875C11.1146 5.52083 10.125 5.1875 9.0625 5.1875C7.6875 5.1875 6.5625 5.63021 5.6875 6.51562C4.8125 7.40104 4.375 8.53125 4.375 9.90625C4.375 10.7188 4.53646 11.5365 4.85938 12.3594C5.18229 13.1823 5.74479 14.1198 6.54688 15.1719C7.34896 16.224 8.4375 17.4375 9.8125 18.8125C11.1875 20.1875 12.9167 21.8333 15 23.75Z" fill="#1C242F"/>
</svg>
