<svg width="20" height="20" viewBox="0 0 20 20" fill="none" xmlns="http://www.w3.org/2000/svg">
<path d="M2.88906 1.0155C1.51417 1.0155 0.615234 1.91833 0.615234 3.10496C0.615234 4.2654 1.48739 5.19397 2.8363 5.19397H2.8624C4.26418 5.19397 5.13657 4.2654 5.13657 3.10496C5.11036 1.91833 4.26418 1.0155 2.88906 1.0155Z" fill="#318765"/>
<path d="M0.853027 6.84503H4.87242V18.9375H0.853027V6.84503Z" fill="#318765"/>
<path d="M14.738 6.56128C12.5697 6.56128 11.1157 8.59879 11.1157 8.59879V6.84509H7.09619V18.9376H11.1155V12.1847C11.1155 11.8232 11.1417 11.4622 11.2479 11.2037C11.5385 10.4818 12.1997 9.73393 13.3101 9.73393C14.7646 9.73393 15.3463 10.8429 15.3463 12.4685V18.9376H19.3653V12.004C19.3653 8.28968 17.3823 6.56128 14.738 6.56128Z" fill="#318765"/>
</svg>
