<svg width="16" height="16" viewBox="0 0 16 16" fill="none" xmlns="http://www.w3.org/2000/svg">
<g clip-path="url(#clip0_80_1284)">
<path d="M5.15504 10.344H5.15577C5.15638 10.344 5.15699 10.3439 5.1576 10.3439H13.6563C13.8655 10.3439 14.0495 10.2051 14.107 10.0039L15.982 3.44141C16.0224 3.29993 15.994 3.14783 15.9055 3.0304C15.8169 2.91296 15.6784 2.84387 15.5313 2.84387H4.07398L3.7389 1.33594C3.69117 1.12146 3.50098 0.968872 3.28125 0.968872H0.468751C0.209839 0.968872 0 1.17871 0 1.43762C0 1.69653 0.209839 1.90637 0.468751 1.90637H2.90528C2.9646 2.17358 4.50879 9.12256 4.59766 9.52234C4.09949 9.73889 3.75001 10.2356 3.75001 10.8126C3.75001 11.588 4.38087 12.2189 5.15626 12.2189H13.6563C13.9152 12.2189 14.125 12.009 14.125 11.7501C14.125 11.4912 13.9152 11.2814 13.6563 11.2814H5.15626C4.89783 11.2814 4.68751 11.071 4.68751 10.8126C4.68751 10.5546 4.8971 10.3446 5.15504 10.344ZM14.9098 3.78137L13.3026 9.40637H5.53223L4.28223 3.78137H14.9098Z" fill="#31956C"/>
<path d="M4.6875 13.625C4.6875 14.4004 5.31836 15.0312 6.09375 15.0312C6.86914 15.0312 7.5 14.4004 7.5 13.625C7.5 12.8496 6.86914 12.2188 6.09375 12.2188C5.31836 12.2188 4.6875 12.8496 4.6875 13.625ZM6.09375 13.1562C6.35217 13.1562 6.5625 13.3666 6.5625 13.625C6.5625 13.8834 6.35217 14.0938 6.09375 14.0938C5.83533 14.0938 5.625 13.8834 5.625 13.625C5.625 13.3666 5.83533 13.1562 6.09375 13.1562Z" fill="#31956C"/>
<path d="M11.3125 13.625C11.3125 14.4004 11.9434 15.0312 12.7188 15.0312C13.4941 15.0312 14.125 14.4004 14.125 13.625C14.125 12.8496 13.4941 12.2188 12.7188 12.2188C11.9434 12.2188 11.3125 12.8496 11.3125 13.625ZM12.7188 13.1562C12.9772 13.1562 13.1875 13.3666 13.1875 13.625C13.1875 13.8834 12.9772 14.0938 12.7188 14.0938C12.4603 14.0938 12.25 13.8834 12.25 13.625C12.25 13.3666 12.4603 13.1562 12.7188 13.1562Z" fill="#31956C"/>
</g>
<defs>
<clipPath id="clip0_80_1284">
<rect width="16" height="16" fill="white"/>
</clipPath>
</defs>
</svg>
